HIERARCHY
ROOT Hip
{
  OFFSET 0.0 0.0 0.0
  CHANNELS 6 Xposition Yposition Zposition Xrotation Yrotation Zrotation
  JOINT LowerSpine
  {
    OFFSET 0.0 0.061367 -0.03653
    CHANNELS 3 Xrotation Yrotation Zrotation
    JOINT MiddleSpine
    {
      OFFSET 0.0 0.056002 0.002633
      CHANNELS 3 Xrotation Yrotation Zrotation
      JOINT Chest
      {
        OFFSET 0.0 0.069296 -0.013882
        CHANNELS 3 Xrotation Yrotation Zrotation
        JOINT Neck
        {
          OFFSET 0.0 0.156156 -0.002923
          CHANNELS 3 Xrotation Yrotation Zrotation
          JOINT Head
          {
            OFFSET 0.0 0.088183 0.023986
            CHANNELS 3 Xrotation Yrotation Zrotation
            End Site
            {
              OFFSET 1e-06 0.123215 0.003678
            }
          }
        }
        JOINT LClavicle
        {
          OFFSET 0.014189 0.150698 0.046467
          CHANNELS 3 Xrotation Yrotation Zrotation
          JOINT LShoulder
          {
            OFFSET 0.082893 0.021616 -0.034976
            CHANNELS 3 Xrotation Yrotation Zrotation
            JOINT LForearm
            {
              OFFSET 0.195645 -0.000695 -0.001695
              CHANNELS 3 Xrotation Yrotation Zrotation
              JOINT LHand
              {
                OFFSET 0.163209 0.000474 -0.000977
                CHANNELS 3 Xrotation Yrotation Zrotation
                End Site
                {
                  OFFSET 0.0 0.006864 0.0
                }
              }
            }
          }
        }
        JOINT RClavicle
        {
          OFFSET -0.014189 0.150698 0.046467
          CHANNELS 3 Xrotation Yrotation Zrotation
          JOINT RShoulder
          {
            OFFSET -0.082908 0.021619 -0.034982
            CHANNELS 3 Xrotation Yrotation Zrotation
            JOINT RForearm
            {
              OFFSET -0.195645 -0.000695 -0.001695
              CHANNELS 3 Xrotation Yrotation Zrotation
              JOINT RHand
              {
                OFFSET -0.163209 0.000474 -0.000977
                CHANNELS 3 Xrotation Yrotation Zrotation
                End Site
                {
                  OFFSET 0.0 0.006864 0.0
                }
              }
            }
          }
        }
      }
    }
  }
  JOINT RThigh
  {
    OFFSET -0.072558 0.02774 -0.005953
    CHANNELS 3 Xrotation Yrotation Zrotation
    JOINT RShin
    {
      OFFSET -0.005253 -0.285537 0.0
      CHANNELS 3 Xrotation Yrotation Zrotation
      JOINT RFoot
      {
        OFFSET 0.0 -0.28038 0.0
        CHANNELS 3 Xrotation Yrotation Zrotation
        JOINT RToe
        {
          OFFSET 0.0 -0.030816 0.064441
          CHANNELS 3 Xrotation Yrotation Zrotation
          End Site
          {
            OFFSET 0.0 0.0 0.043231
          }
        }
      }
    }
  }
  JOINT LThigh
  {
    OFFSET 0.072557 0.027741 -0.005953
    CHANNELS 3 Xrotation Yrotation Zrotation
    JOINT LShin
    {
      OFFSET 0.005253 -0.285539 0.0
      CHANNELS 3 Xrotation Yrotation Zrotation
      JOINT LFoot
      {
        OFFSET 0.0 -0.28038 0.0
        CHANNELS 3 Xrotation Yrotation Zrotation
        JOINT LToe
        {
          OFFSET 0.0 -0.030816 0.064441
          CHANNELS 3 Xrotation Yrotation Zrotation
          End Site
          {
            OFFSET 0.0 0.0 0.043231
          }
        }
      }
    }
  }
}
MOTION
Frames: 12
Frame Time: 0.03333333333333333
-0.031052 0.521861 -0.138648 7.465743 1.291366 1.010202 3.274786 -0.326331 -0.924576 0.113142 1.418644 -0.434455 -6.418679 4.419704 -3.325342 0.513299 0.441552 0.824093 0.082409 -0.03626 0.002556 -0.94363 -1.752067 -1.920429 12.86855 -24.149269 -37.933449 12.846474 -53.831783 4.057319 0.205514 0.291842 -0.23654 -2.407924 0.559954 4.66373 1.16576 42.80336 51.591503 7.728633 43.238098 -5.386235 0.257255 -0.593484 -0.004846 -36.719467 0.650393 -8.145525 31.534475 -1.166039 6.790393 -2.572405 0.744814 -0.013545 0.243734 0.760214 0.117015 -24.197914 7.978796 12.512503 20.512266 8.706213 -11.648097 -3.373141 -0.862013 -0.204305 0.084858 -0.122792 -0.023103 
-0.016145 0.51122 -0.143004 3.112252 -1.304928 -0.295975 3.824756 -0.766984 -0.031626 -1.051397 1.846505 0.74712 -7.797723 6.393167 -2.941789 1.343475 0.617276 0.656902 0.106202 -0.519322 -0.092153 -1.519391 -4.501671 -2.393338 12.373562 -23.486319 -39.599064 13.22511 -55.246708 7.420453 0.230155 0.373571 -0.285001 -3.927592 1.054125 4.920743 3.854957 36.770042 51.958904 10.779359 46.384399 -7.592604 -0.270412 -0.342137 -0.067178 -29.969269 0.782277 -6.498159 25.063898 0.527587 4.709659 -1.712708 0.660872 -0.616423 -0.096654 0.611187 0.206606 -17.380451 10.75131 11.913532 15.991937 7.629198 -11.782688 -4.490156 -0.685613 0.483759 0.182606 -0.379403 -0.125384 
-0.016271 0.512577 -0.13746 1.978778 -1.802435 -0.216765 3.736096 -0.780682 -0.036266 -1.051317 1.895635 0.887304 -7.485827 5.733004 -1.605025 1.537734 0.585331 0.575254 0.094715 -0.47521 -0.094855 -1.725233 -4.786584 -3.131505 11.618658 -23.322302 -41.882965 12.105895 -50.068863 7.198853 0.174956 0.323089 -0.224235 -3.85204 1.672728 5.063971 4.679214 33.949883 51.831856 9.61353 49.678249 -5.728595 -0.293729 -0.281319 -0.063547 -26.410135 -1.099625 -5.802357 21.128366 -0.00336 4.458985 -1.582925 0.67594 -0.553229 -0.1158 0.531882 0.203802 -14.611238 10.214339 11.136063 13.163901 6.751879 -10.797853 -4.560152 -0.465839 0.617955 0.148976 -0.30939 -0.111015 
-0.026816 0.51613 -0.128876 1.568801 -1.667187 0.070044 3.531793 -0.724193 0.047804 -0.811947 1.909844 0.83217 -6.661628 5.741434 -1.650944 1.611481 0.580373 0.535592 0.087183 -0.448448 -0.084573 -1.802317 -4.701117 -3.722031 12.085359 -23.265955 -42.814442 12.173742 -47.755424 7.005953 0.143299 0.28406 -0.175993 -3.639186 1.966524 5.202666 4.018404 33.815811 51.603607 8.167235 54.229797 -3.685986 -0.293835 -0.232657 -0.056019 -24.716904 -1.323727 -5.098514 20.495543 0.12029 3.918322 -1.857235 0.642261 -0.474486 -0.126148 0.462808 0.192783 -13.519716 10.613665 11.253181 12.147649 7.156248 -10.278447 -4.310589 -0.306577 0.679362 0.131053 -0.265012 -0.097217 
-0.039895 0.514855 -0.130488 1.337894 -1.088459 0.631649 3.400219 -0.68713 0.090834 -0.537279 1.971726 0.651812 -5.74919 6.04732 -1.969241 1.680122 0.566844 0.524219 0.082388 -0.419842 -0.077915 -1.869059 -4.505772 -3.992142 12.280837 -23.782591 -43.021969 12.045177 -46.244133 6.608231 0.122729 0.254251 -0.139372 -3.538648 2.127377 5.214084 2.39893 35.097782 51.650673 7.112133 56.69817 -2.418408 -0.287456 -0.189849 -0.050125 -24.361958 -0.950718 -4.552162 21.524883 0.512852 3.531933 -2.624174 0.625494 -0.432141 -0.131973 0.402559 0.182203 -14.042428 10.724461 11.691845 12.422974 7.422632 -10.030368 -3.993052 -0.211521 0.689095 0.123623 -0.231157 -0.083159 
-0.048284 0.512501 -0.136124 1.189588 -0.772805 1.035384 3.357378 -0.68153 0.114642 -0.395768 2.049548 0.569555 -5.35076 6.43716 -2.046617 1.726049 0.563107 0.526926 0.079717 -0.407216 -0.074779 -1.909572 -4.397403 -4.110838 12.416284 -24.365444 -43.268169 11.882839 -44.978287 6.308741 0.114706 0.242764 -0.121518 -3.515652 2.155919 5.119004 0.966469 36.438206 51.821629 6.594743 56.840988 -1.812261 -0.287408 -0.16382 -0.047987 -24.638485 -0.535442 -4.186171 23.033752 0.77823 3.357061 -3.35905 0.595504 -0.449556 -0.132761 0.378053 0.179503 -14.813617 10.255302 11.966887 12.655951 7.00652 -9.720328 -3.832187 -0.182537 0.686505 0.121952 -0.222454 -0.078231 
-0.050622 0.510397 -0.141392 1.402968 -0.564646 1.360264 3.328429 -0.682449 0.100335 -0.381539 2.085333 0.562542 -5.644432 6.609358 -1.809622 1.733847 0.554718 0.52802 0.077352 -0.388914 -0.071896 -1.931364 -4.365403 -4.167542 12.574409 -24.505383 -43.756065 11.547534 -44.166016 5.993823 0.111408 0.234278 -0.112633 -3.505684 2.181317 5.022414 0.438394 36.685215 52.08157 6.196184 56.195827 -1.43525 -0.27953 -0.151135 -0.047054 -25.805433 -0.575396 -4.028425 24.717228 0.735409 3.438316 -4.010262 0.553298 -0.480691 -0.132812 0.365664 0.175439 -16.117731 9.321163 11.817628 12.856763 6.125584 -9.260921 -3.757397 -0.218447 0.650899 0.116658 -0.220131 -0.074953 
-0.051013 0.508077 -0.146038 1.755106 -0.119598 1.681291 3.31777 -0.678094 0.100064 -0.421541 2.061241 0.57508 -6.110271 6.610125 -1.620526 1.745351 0.553271 0.529306 0.075544 -0.382468 -0.069099 -1.969725 -4.437615 -4.166041 12.901125 -24.290625 -43.987309 11.414066 -44.0844 5.770857 0.109796 0.22881 -0.108016 -3.535865 2.273649 4.968051 0.3754 36.744408 52.350086 6.094154 54.761436 -1.151471 -0.282834 -0.138906 -0.047467 -27.488777 -0.629452 -3.871935 26.335897 0.679056 3.472585 -4.414224 0.491291 -0.520905 -0.13961 0.353949 0.174341 -17.759319 8.635921 11.61511 13.288989 5.412983 -9.031823 -3.707148 -0.281853 0.611906 0.113266 -0.221923 -0.075896 
-0.051439 0.504585 -0.150852 2.237842 0.441846 2.050874 3.332032 -0.672539 0.09981 -0.515431 1.985586 0.571892 -6.802286 6.519106 -1.429648 1.779085 0.552999 0.532992 0.072539 -0.373923 -0.064356 -2.029174 -4.538261 -4.093897 13.256908 -23.776894 -44.096146 11.241618 -44.133778 5.4309 0.105557 0.218656 -0.10147 -3.57831 2.423315 4.99041 0.419971 36.807751 52.667984 6.000449 52.186516 -0.756969 -0.292456 -0.119428 -0.047538 -29.789026 -0.530857 -3.664297 28.066448 0.720051 3.461886 -4.728427 0.394197 -0.563499 -0.15052 0.336673 0.173993 -19.823698 8.229173 11.366492 14.058733 4.977835 -8.979506 -3.68414 -0.351895 0.56074 0.1092 -0.217999 -0.075801 
-0.051169 0.499273 -0.158368 2.973782 0.857641 2.386611 3.343387 -0.657843 0.095786 -0.637559 1.871622 0.563543 -7.712792 6.341 -1.255483 1.807292 0.544069 0.537636 0.068913 -0.358011 -0.05861 -2.081405 -4.609525 -3.995042 13.552942 -23.252699 -44.139256 11.163888 -44.374016 5.04039 0.099579 0.205799 -0.094526 -3.601181 2.578568 5.067953 0.544276 36.981136 52.946777 5.811904 48.512554 -0.430796 -0.293757 -0.101556 -0.046531 -33.075623 -0.331226 -3.459195 30.252647 0.81005 3.477877 -5.042203 0.274379 -0.608012 -0.156338 0.319531 0.172212 -22.846094 7.920989 11.199451 15.608608 4.746601 -9.047459 -3.630466 -0.412586 0.495869 0.104848 -0.209365 -0.07325 
-0.050039 0.491408 -0.170405 4.285265 1.157471 2.581796 3.334858 -0.64313 0.073432 -0.7724 1.732737 0.552439 -8.960437 6.02002 -1.169567 1.811811 0.535312 0.536297 0.065967 -0.341093 -0.054719 -2.09674 -4.632638 -3.86987 13.834237 -22.78722 -44.029442 11.069609 -44.674286 4.664437 0.096942 0.197429 -0.094204 -3.582322 2.644572 5.204923 0.80508 37.319099 53.135815 5.563381 44.341682 -0.361389 -0.28765 -0.09415 -0.046212 -37.9161 -0.0888 -3.302698 33.292343 0.845764 3.551196 -5.30074 0.105688 -0.669683 -0.159421 0.312431 0.170235 -27.624773 7.705663 11.238092 18.347826 4.74307 -9.298316 -3.60234 -0.453249 0.436139 0.102404 -0.2041 -0.071242 
-0.047826 0.481803 -0.187094 7.117473 1.514027 2.463181 3.209543 -0.622635 0.038963 -0.916774 1.578154 0.515139 -10.566422 5.595452 -1.25674 1.689389 0.519224 0.519573 0.064418 -0.313749 -0.05363 -2.010012 -4.524748 -3.781128 14.366282 -22.432764 -43.339825 11.012444 -45.248474 4.179693 0.098015 0.194409 -0.101263 -3.477912 2.531467 5.481615 1.657919 37.888531 52.919525 5.340437 39.859207 -0.488472 -0.262899 -0.103661 -0.04647 -45.716244 0.397797 -3.312769 38.060169 0.815264 3.736833 -5.627639 -0.093783 -0.744974 -0.160454 0.321388 0.168515 -35.797329 7.423608 11.672541 23.52038 5.011219 -9.732491 -3.633615 -0.499907 0.358689 0.101107 -0.200794 -0.068872 
